<?xml version="1.0" encoding="UTF-8"?>
<svg id="Layer_1" xmlns="http://www.w3.org/2000/svg" version="1.1" viewBox="0 0 566 560">
  <!-- Generator: Adobe Illustrator 30.0.0, SVG Export Plug-In . SVG Version: 2.1.1 Build 123)  -->
  <defs>
    <style>
      .st0 {
        fill: #682fda;
      }
    </style>
  </defs>
  <path class="st0" d="M192.6,484.4c-56.2-55.9-112.7-111.6-168.6-167.9-20.1-23.8-20.9-52-1.5-76.5C90.8,170.5,161.8,102.2,229.6,33.1c24.6-25.1,48.8-39.8,84.1-20.3,78.4,72.4,151.5,150.6,227.8,225.2,17.1,20,21.7,44.7,8,68-73.2,80.1-153.2,154.2-229,232-53.9,42.9-93.4-19.5-127.9-53.7ZM285.8,49.2c-2.2-1.3-6.4.5-7.1,3.1-12.8,51.8-29.4,103.8-66.3,143.7-30.9,33.5-68.8,50.1-111.7,63.3-6.2,1.9-44.8,11.2-46.3,13.7s-.9,4.8-.3,5.9c18.7,6.6,38.5,10,57.6,15.9,44.8,13.8,84.7,35.5,113.6,73.4,30.4,39.8,42.3,89.7,53.3,137.7,1.2,2.3,5.5,2.6,7.3.7,6.2-18.7,9.8-38.5,15.5-57.5,25.2-83.4,69.5-128.6,152.7-154.3,7.6-2.4,55.7-13.2,57.3-15.7s.8-4.7,0-6.1c-20.4-7.6-42.3-11.9-63-18.9-82.4-28-124.1-77.2-149.7-159.3s-10.9-44.4-12.9-45.6Z"/>
</svg>